<svg xmlns="http://www.w3.org/2000/svg" width="375" height="9078"><defs><radialGradient id="wuy5tj7fmb" cx=".5" cy=".5" r=".5" gradientUnits="objectBoundingBox"><stop offset="0" stop-color="#ddba7c"/><stop offset="1" stop-color="#ddba7c" stop-opacity="0"/></radialGradient><radialGradient id="gk5hpoodkc" cx=".5" cy=".5" r=".5" gradientUnits="objectBoundingBox"><stop offset="0" stop-color="#d88d78"/><stop offset="1" stop-color="#d88d78" stop-opacity="0"/></radialGradient><radialGradient id="b7uaveh6wd" cx=".5" cy=".5" r=".5" gradientUnits="objectBoundingBox"><stop offset="0" stop-color="#e6bba3"/><stop offset="1" stop-color="#e6bba3" stop-opacity="0"/></radialGradient><clipPath id="3ycu8mjvea"><path data-name="Rectangle 141" style="fill:#fff;stroke:#707070" d="M0 0h375v9078H0z"/></clipPath></defs><g data-name="Mobile Gradient Background" style="-webkit-clip-path:url(#3ycu8mjvea);clip-path:url(#3ycu8mjvea)"><g data-name="Background Elements" transform="rotate(90 2063.356 1231.606)"><path data-name="Rectangle 55" transform="rotate(90 4987.676 7271.184)" style="fill:#fffbf5" d="M0 0h1458.043v11646.307H0z"/><g data-name="Group 18" transform="translate(0 260.473)"><ellipse data-name="Ellipse 24" cx="3862.048" cy="1123.149" rx="3862.048" ry="1123.149" transform="translate(1257.92 2279.711)" style="opacity:.423;fill:url(#wuy5tj7fmb)"/><ellipse data-name="Ellipse 25" cx="4251.144" cy="1396.152" rx="4251.144" ry="1396.152" transform="translate(5687.985)" style="opacity:.423;fill:url(#wuy5tj7fmb)"/><ellipse data-name="Ellipse 26" cx="2751.797" cy="903.683" rx="2751.797" ry="903.683" transform="translate(0 2730.792)" style="fill:url(#gk5hpoodkc);opacity:.669"/><ellipse data-name="Ellipse 27" cx="2751.016" cy="1314.896" rx="2751.016" ry="1314.896" transform="translate(5462.967 773.826)" style="opacity:.307;fill:url(#gk5hpoodkc)"/></g><ellipse data-name="Ellipse 24" cx="3861.267" cy="3012.149" rx="3861.267" ry="3012.149" transform="translate(10674.349)" style="opacity:.423;fill:url(#wuy5tj7fmb)"/><path data-name="Path 3894" d="M1419.459 10.573c987.979 165.34 1966.841 907.176 2186.358 1656.936S3202.364 2891.036 2214.385 2725.7 247.54 1818.522 28.027 1068.761 431.48-154.766 1419.459 10.573z" transform="rotate(-19 14755.766 -50960.039)" style="opacity:.661;fill:url(#b7uaveh6wd)"/><ellipse data-name="Ellipse 26" cx="2751.016" cy="904.062" rx="2751.016" ry="904.062" transform="translate(11032.193 2044.297)" style="opacity:.463;fill:url(#gk5hpoodkc)"/></g></g></svg>